<?xml version="1.0" encoding="utf-8"?>
<!-- Generator: Adobe Illustrator 26.0.1, SVG Export Plug-In . SVG Version: 6.00 Build 0)  -->
<svg version="1.1" id="Layer_1" xmlns="http://www.w3.org/2000/svg" xmlns:xlink="http://www.w3.org/1999/xlink" x="0px" y="0px"
	 viewBox="0 0 1169.7 347.8" style="enable-background:new 0 0 1169.7 347.8;" xml:space="preserve">
<style type="text/css">
	.st0{fill:#4D9796;}
	.st1{fill:#FCD3A8;}
</style>
<path class="st0" d="M191.7,217.1c-0.6,0-1.2-0.3-1.6-0.8L120,128.1l-71.3,88.3c-0.7,0.9-2,1-2.8,0.3s-1-2-0.3-2.8l73-90.2
	c0.4-0.5,1-0.8,1.6-0.7c0.6,0,1.2,0.3,1.6,0.8l71.7,90.2c0.7,0.9,0.5,2.1-0.3,2.8c-0.4,0.3-0.8,0.4-1.2,0.4h-0.3V217.1z"/>
<path class="st0" d="M299.2,217.1c-0.6,0-1.2-0.3-1.6-0.8L227.5,128l-71.4,88.3c-0.7,0.9-2,1-2.8,0.3s-1-2-0.3-2.8l73-90.2
	c0.4-0.5,1-0.7,1.6-0.7l0,0c0.6,0,1.2,0.3,1.6,0.8l71.7,90.2c0.7,0.9,0.5,2.1-0.3,2.8l0,0C300.1,217,299.7,217.1,299.2,217.1z"/>
<path class="st0" d="M245.5,199.9c-0.6,0-1.2-0.3-1.6-0.8l-70.1-88.3l-71.4,88.3c-0.7,0.9-2,1-2.8,0.3c-0.9-0.7-1-2-0.3-2.8l0,0
	l73-90.2c0.4-0.5,1-0.7,1.6-0.7l0,0c0.6,0,1.2,0.3,1.6,0.8l71.6,90.2c0.7,0.9,0.5,2.1-0.3,2.8l0,0
	C246.4,199.7,245.9,199.9,245.5,199.9z"/>
<path class="st1" d="M173.2,347.8c-86.7,0-160-64.1-171.6-150c-0.3-2.5,1.4-4.9,4-5.2c2.5-0.3,4.9,1.4,5.2,4l0,0
	c10.8,80.9,80.7,141.9,162.4,141.9s151.6-61,162.4-141.9c0.2-2.6,2.5-4.4,5.1-4.2s4.4,2.5,4.2,5.1c0,0.1,0,0.3-0.1,0.4
	C333.2,283.7,259.8,347.8,173.2,347.8L173.2,347.8z"/>
<circle class="st0" cx="4.6" cy="173.9" r="4.6"/>
<circle class="st0" cx="341.7" cy="173.9" r="4.6"/>
<path class="st1" d="M339.7,155.2c-2.3,0-4.3-1.7-4.6-4c-10.8-81-80.6-142-162.4-142S21.1,70.3,10.3,151.2c-0.4,2.5-2.9,4.2-5.4,3.8
	c-2.4-0.4-4-2.6-3.8-5C13.9,55.2,101.1-11.2,195.9,1.6C273.2,12,333.9,72.8,344.3,150c0.3,2.5-1.4,4.9-4,5.2l0,0
	C340.1,155.2,339.9,155.2,339.7,155.2z"/>
<path class="st0" d="M460.8,93.6h-41.3l-8.9,19.8h-8.2l33.9-74.2h7.7l33.9,74.2h-8.2L460.8,93.6z M457.9,87.2l-17.8-39.9l-17.8,39.9
	H457.9z"/>
<path class="st0" d="M504.6,53.5h7.6V107h33.4v6.4h-41L504.6,53.5z"/>
<path class="st0" d="M616.6,107.1v6.4H573v-60h42.3v6.4h-34.7v20h31v6.3h-31V107L616.6,107.1z"/>
<path class="st0" d="M684.5,113.4l-18.8-25.2l-18.9,25.2h-8.6l23.3-30.9l-21.9-29h8.6L665.8,77l17.6-23.5h8.5l-21.8,29l23.2,30.9
	H684.5z"/>
<path class="st0" d="M755.4,98h-33.6l-7,15.5h-7.6l27.7-59.9h7.5l27.7,59.9h-7.6L755.4,98z M752.7,91.8l-14-31.1l-14.1,31.1H752.7z"
	/>
<path class="st0" d="M848.5,53.5v59.9h-6.4l-37.6-46.7v46.8h-7.6v-60h6.4l37.6,46.8V53.5H848.5z"/>
<path class="st0" d="M886.1,53.5h25.1c6-0.1,12,1.1,17.4,3.8c4.7,2.3,8.7,6,11.4,10.5c5.3,9.8,5.3,21.6,0,31.3
	c-2.7,4.6-6.6,8.3-11.4,10.6c-5.4,2.6-11.4,3.9-17.4,3.8H886L886.1,53.5L886.1,53.5L886.1,53.5z M911,107.1c8,0,14.2-2.1,18.7-6.4
	c4.5-4.3,6.7-10,6.7-17.2c0-7.1-2.2-12.8-6.7-17.1C925.2,62.1,919,60,911,60h-17.2v47.2H911V107.1z"/>
<path class="st0" d="M1016.6,113.4L1003,94.5c-1.8,0.1-3.2,0.2-4.1,0.2h-15.7v18.7h-7.6V53.5h23.3c7.8,0,13.9,1.8,18.3,5.5
	s6.7,8.7,6.7,15.2c0.1,4.2-1.1,8.3-3.6,11.8c-2.5,3.4-6.1,5.9-10.1,7.1l14.6,20.4h-8.2L1016.6,113.4L1016.6,113.4z M1011.7,84.8
	c3.1-2.5,4.6-6,4.6-10.6s-1.5-8.1-4.6-10.6c-3-2.5-7.4-3.7-13.2-3.7h-15.3v28.6h15.3C1004.2,88.5,1008.6,87.3,1011.7,84.8z"/>
<path class="st0" d="M1057.1,53.5h7.6v59.9h-7.6V53.5z"/>
<path class="st0" d="M1139.7,98h-33.6l-7,15.5h-7.6l27.7-59.9h7.6l27.7,59.9h-7.7L1139.7,98z M1136.9,91.8l-14-31.1l-14.1,31.1
	H1136.9z"/>
<path class="st0" d="M428.6,152h-26.1v-6.8h60v6.8h-26.1v67.4h-7.8V152z"/>
<path class="st0" d="M488.6,159.5h7.6v26.3h36.4v-26.3h7.6v59.9h-7.6v-27.1h-36.4v27.1h-7.6L488.6,159.5z"/>
<path class="st0" d="M577.9,159.5h7.6v59.9h-7.6V159.5z"/>
<path class="st0" d="M671.6,193.6c2.2,2.8,3.3,6.2,3.1,9.7c0,5.2-2,9.1-5.9,11.9c-3.9,2.8-9.7,4.2-17.3,4.2h-28.4v-59.9h26.7
	c6.8,0,12.2,1.3,16,4c3.7,2.6,5.9,6.8,5.7,11.3c0.3,6-3.3,11.4-8.9,13.6C666.1,189.1,669.3,190.9,671.6,193.6z M630.8,165.5v20.7
	h18.5c4.7,0,8.4-0.9,10.9-2.6c2.5-1.7,4-4.7,3.8-7.7c0.2-3.1-1.3-6-3.8-7.7s-6.2-2.6-10.9-2.6L630.8,165.5L630.8,165.5z M667,202.8
	c0-3.7-1.3-6.4-4-8.1c-2.7-1.7-6.6-2.6-11.8-2.6h-20.4v21.4h20.5C661.8,213.5,667,209.9,667,202.8L667,202.8z"/>
<path class="st0" d="M715.8,216.1c-4.8-2.5-8.8-6.3-11.5-11c-8.6-14.3-4-33,10.3-41.6c0.4-0.2,0.8-0.5,1.2-0.7
	c10.3-5.4,22.5-5.4,32.8-0.1c4.8,2.5,8.7,6.3,11.5,11c5.6,9.7,5.6,21.6,0,31.3c-2.8,4.7-6.7,8.5-11.5,11
	C738.4,221.4,726.1,221.4,715.8,216.1L715.8,216.1z M744.7,210.4c3.7-2,6.7-5,8.8-8.6c4.2-7.6,4.2-16.9,0-24.6
	c-2.1-3.6-5.1-6.6-8.8-8.6c-7.8-4.2-17.2-4.2-25,0c-3.7,2-6.7,5-8.8,8.6c-4.2,7.6-4.2,16.9,0,24.6c2.1,3.6,5.1,6.6,8.8,8.6
	C727.5,214.5,736.9,214.5,744.7,210.4z"/>
<path class="st0" d="M795.9,159.5H821c6-0.1,12,1.2,17.4,3.8c4.7,2.3,8.7,6,11.4,10.5c5.3,9.8,5.3,21.6,0,31.3
	c-2.7,4.6-6.6,8.3-11.4,10.6c-5.4,2.6-11.4,3.9-17.4,3.8h-25.1V159.5z M820.7,213.1c8,0,14.2-2.1,18.7-6.4c4.5-4.3,6.7-10,6.7-17.2
	c0-7.1-2.2-12.8-6.7-17.1s-10.7-6.4-18.7-6.4h-17.1v47.2h17.1V213.1z"/>
<path class="st0" d="M929,213.1v6.4h-43.6v-59.9h42.3v6.4H893v20h31v6.2h-31V213L929,213.1z"/>
<path class="st0" d="M998.1,204h-33.6l-7,15.5h-7.6l27.7-59.9h7.5l27.7,59.9h-7.6L998.1,204z M995.3,197.8l-14-31.1l-14.1,31.1
	H995.3z"/>
<path class="st0" d="M1044,213.3c-4.5-4.5-6.7-11-6.7-19.3v-34.4h7.6v34.2c0,6.5,1.5,11.4,4.6,14.7s7.5,5,13.2,5
	c5.8,0,10.2-1.7,13.3-5c3.1-3.3,4.6-8.2,4.6-14.7v-34.2h7.4V194c0,8.3-2.2,14.8-6.7,19.3c-4.5,4.5-10.7,6.8-18.7,6.8
	C1054.7,220.1,1048.5,217.8,1044,213.3z"/>
<path class="st0" d="M1161,219.4l-18.9-25.2l-18.9,25.2h-8.6l23.3-30.8l-21.9-29h8.6l17.6,23.5l17.6-23.5h8.5l-21.8,29l23.2,30.8
	H1161z"/>
<g>
	<path class="st0" d="M415.2,268.4h-12.5v-5.9h32.1v5.9h-12.5v31.9h-7V268.4z"/>
	<path class="st0" d="M444.8,269.3h6.8v12.4h14.9v-12.4h6.8v30.9h-6.8v-12.9h-14.9v12.9h-6.8V269.3z"/>
	<path class="st0" d="M512.1,294.8v5.5h-24v-30.9h23.4v5.5h-16.6v7.1h14.8v5.3h-14.8v7.6H512.1z"/>
	<path class="st0" d="M577.1,284c1.2,1.6,1.8,3.6,1.8,6c0,3.3-1.3,5.8-3.8,7.6c-2.5,1.8-6.2,2.7-11,2.7h-18.8v-37.9H563
		c4.5,0,7.9,0.9,10.3,2.6c2.4,1.7,3.6,4.2,3.6,7.2c0,1.9-0.4,3.5-1.3,5c-0.9,1.4-2.1,2.6-3.6,3.4C574.2,281.3,575.8,282.4,577.1,284
		z M552.3,267.9v10.4h9.9c2.5,0,4.3-0.4,5.7-1.3c1.3-0.9,2-2.2,2-3.9c0-1.7-0.7-3-2-3.9c-1.3-0.9-3.2-1.3-5.7-1.3H552.3z
		 M571.8,289.3c0-3.6-2.7-5.5-8.2-5.5h-11.4v10.9h11.4C569.1,294.8,571.8,292.9,571.8,289.3z"/>
	<path class="st0" d="M597.2,298.7c-2.6-1.4-4.6-3.3-6.1-5.7c-1.5-2.4-2.2-5.2-2.2-8.2c0-3,0.7-5.8,2.2-8.2c1.5-2.4,3.5-4.3,6.1-5.7
		s5.5-2.1,8.7-2.1c3.2,0,6.2,0.7,8.8,2.1c2.6,1.4,4.6,3.3,6.1,5.7c1.5,2.4,2.2,5.2,2.2,8.2c0,3-0.7,5.8-2.2,8.2
		c-1.5,2.4-3.5,4.3-6.1,5.7c-2.6,1.4-5.5,2.1-8.8,2.1C602.7,300.8,599.8,300.1,597.2,298.7z M611.2,293.7c1.5-0.9,2.8-2.1,3.6-3.6
		s1.3-3.3,1.3-5.2c0-1.9-0.4-3.7-1.3-5.2c-0.9-1.5-2.1-2.8-3.6-3.6c-1.5-0.9-3.3-1.3-5.2-1.3c-1.9,0-3.6,0.4-5.2,1.3
		c-1.5,0.9-2.8,2.1-3.6,3.6c-0.9,1.5-1.3,3.3-1.3,5.2c0,1.9,0.4,3.7,1.3,5.2c0.9,1.5,2.1,2.8,3.6,3.6c1.5,0.9,3.3,1.3,5.2,1.3
		C607.9,295,609.6,294.6,611.2,293.7z"/>
	<path class="st0" d="M638.6,297.1c-2.5-2.5-3.7-5.8-3.7-10.1v-17.7h6.8v17.5c0,2.7,0.6,4.7,1.9,6.1c1.3,1.4,3.1,2.1,5.5,2.1
		c2.3,0,4.1-0.7,5.4-2.1c1.2-1.4,1.9-3.4,1.9-6.1v-17.5h6.7V287c0,4.3-1.2,7.7-3.7,10.1s-5.9,3.7-10.3,3.7
		C644.6,300.8,641.1,299.6,638.6,297.1z"/>
	<path class="st0" d="M706.1,269.3v30.9h-5.6l-16.1-19.5v19.5h-6.8v-30.9h5.7l16.1,19.5v-19.5H706.1z"/>
	<path class="st0" d="M720.9,269.3h14c3.5,0,6.5,0.6,9.1,1.9c2.6,1.3,4.6,3.1,6.1,5.4c1.4,2.3,2.1,5.1,2.1,8.2
		c0,3.1-0.7,5.9-2.1,8.2c-1.4,2.3-3.4,4.1-6.1,5.4c-2.6,1.3-5.7,1.9-9.1,1.9h-14V269.3z M734.7,294.8c3.3,0,5.9-0.9,7.8-2.6
		c1.9-1.7,2.8-4.2,2.8-7.3c0-3.1-0.9-5.6-2.8-7.3s-4.5-2.6-7.8-2.6h-7v19.8H734.7z"/>
	<path class="st0" d="M784.2,293.6h-15.6l-2.9,6.7H759l14.1-30.9h6.8l14,30.9H787L784.2,293.6z M781.9,288.4l-5.6-12.9l-5.6,12.9
		H781.9z"/>
	<path class="st0" d="M823.7,300.3l-6.2-8.8H817h-6.5v8.8h-6.8v-30.9H817c4.2,0,7.5,1,9.9,2.9s3.6,4.7,3.6,8.2c0,2.3-0.6,4.3-1.7,6
		c-1.1,1.7-2.7,2.9-4.8,3.8l7.1,10H823.7z M821.8,276.3c-1.2-1-3-1.4-5.3-1.4h-6.1v11.3h6.1c2.3,0,4.1-0.5,5.3-1.5
		c1.2-1,1.8-2.4,1.8-4.2C823.6,278.6,823,277.3,821.8,276.3z"/>
	<path class="st0" d="M857.4,290.1v10.2h-6.9V290L838,269.3h7.2l8.9,14.5l8.9-14.5h6.9L857.4,290.1z"/>
	<path class="st0" d="M932.4,284c1.2,1.6,1.8,3.6,1.8,6c0,3.3-1.3,5.8-3.8,7.6s-6.2,2.7-11,2.7h-18.8v-37.9h17.7
		c4.5,0,7.9,0.9,10.3,2.6c2.4,1.7,3.6,4.2,3.6,7.2c0,1.9-0.4,3.5-1.3,5c-0.9,1.4-2.1,2.6-3.6,3.4C929.5,281.3,931.2,282.4,932.4,284
		z M907.7,267.9v10.4h10c2.5,0,4.3-0.4,5.7-1.3c1.3-0.9,2-2.2,2-3.9c0-1.7-0.7-3-2-3.9c-1.3-0.9-3.2-1.3-5.7-1.3H907.7z
		 M927.2,289.3c0-3.6-2.7-5.5-8.2-5.5h-11.4v10.9H919C924.5,294.8,927.2,292.9,927.2,289.3z"/>
	<path class="st0" d="M967,293.6h-15.6l-2.9,6.7h-6.7l14.1-30.9h6.8l14,30.9h-6.8L967,293.6z M964.8,288.4l-5.6-12.9l-5.6,12.9
		H964.8z"/>
	<path class="st0" d="M986.5,269.3h14c3.5,0,6.5,0.6,9.1,1.9c2.6,1.3,4.6,3.1,6.1,5.4c1.4,2.3,2.1,5.1,2.1,8.2
		c0,3.1-0.7,5.9-2.1,8.2c-1.4,2.3-3.4,4.1-6.1,5.4c-2.6,1.3-5.7,1.9-9.1,1.9h-14V269.3z M1000.3,294.8c3.3,0,5.9-0.9,7.8-2.6
		c1.9-1.7,2.8-4.2,2.8-7.3c0-3.1-0.9-5.6-2.8-7.3s-4.5-2.6-7.8-2.6h-7v19.8H1000.3z"/>
	<path class="st0" d="M1049.8,293.6h-15.6l-2.9,6.7h-6.7l14.1-30.9h6.8l14,30.9h-6.8L1049.8,293.6z M1047.6,288.4l-5.6-12.9
		l-5.6,12.9H1047.6z"/>
	<path class="st0" d="M1071.7,299.8c-2.3-0.6-4.2-1.5-5.6-2.5l2.5-5.3c1.3,1,2.9,1.7,4.8,2.3c1.9,0.6,3.8,0.9,5.7,0.9
		c2.1,0,3.7-0.3,4.7-0.9c1-0.6,1.5-1.5,1.5-2.5c0-1.2-0.6-2-1.7-2.5c-1.1-0.5-2.9-1-5.3-1.5c-2.4-0.5-4.4-1.1-5.9-1.6
		s-2.8-1.4-3.9-2.6c-1.1-1.2-1.6-2.9-1.6-5c0-1.9,0.5-3.6,1.6-5c1.1-1.4,2.6-2.6,4.6-3.4c2-0.8,4.3-1.2,7-1.2c2,0,4,0.2,5.9,0.7
		c1.9,0.5,3.6,1.1,4.9,2l-2.3,5.3c-2.5-1.6-5.4-2.4-8.7-2.4c-2.1,0-3.6,0.3-4.6,1c-1,0.7-1.5,1.5-1.5,2.6c0,1.2,0.6,2,1.7,2.5
		s2.9,1,5.3,1.5c2.4,0.5,4.3,1.1,5.8,1.6c1.5,0.5,2.8,1.4,3.8,2.6c1.1,1.2,1.6,2.8,1.6,4.9c0,3-1.2,5.3-3.5,7.1
		c-2.4,1.7-5.6,2.6-9.7,2.6C1076.4,300.8,1074.1,300.5,1071.7,299.8z"/>
	<path class="st0" d="M1106.4,299.8c-2.3-0.6-4.2-1.5-5.6-2.5l2.5-5.3c1.3,1,2.9,1.7,4.8,2.3c1.9,0.6,3.8,0.9,5.7,0.9
		c2.1,0,3.7-0.3,4.7-0.9c1-0.6,1.5-1.5,1.5-2.5c0-1.2-0.6-2-1.7-2.5c-1.1-0.5-2.9-1-5.3-1.5c-2.4-0.5-4.4-1.1-5.9-1.6
		s-2.8-1.4-3.9-2.6c-1.1-1.2-1.6-2.9-1.6-5c0-1.9,0.5-3.6,1.6-5c1.1-1.4,2.6-2.6,4.6-3.4c2-0.8,4.3-1.2,7-1.2c2,0,4,0.2,5.9,0.7
		c1.9,0.5,3.6,1.1,4.9,2l-2.3,5.3c-2.5-1.6-5.4-2.4-8.7-2.4c-2.1,0-3.6,0.3-4.6,1c-1,0.7-1.5,1.5-1.5,2.6c0,1.2,0.6,2,1.7,2.5
		s2.9,1,5.3,1.5c2.4,0.5,4.3,1.1,5.8,1.6c1.5,0.5,2.8,1.4,3.8,2.6c1.1,1.2,1.6,2.8,1.6,4.9c0,3-1.2,5.3-3.5,7.1
		c-2.4,1.7-5.6,2.6-9.7,2.6C1111.1,300.8,1108.7,300.5,1106.4,299.8z"/>
	<path class="st0" d="M1134,260.2h12.1v2.3h-4.6v10.8h-2.9v-10.8h-4.6V260.2z M1160.8,273.3l0-8.3l-4.4,6.8h-1.3l-4.4-6.7v8.1h-2.7
		v-13.1h2.3l5.5,8.4l5.5-8.4h2.3l0,13.1H1160.8z"/>
</g>
<text transform="matrix(1 0 0 1 402.4004 483.7051)" class="st0" style="font-family:'Montserrat-SemiBold'; font-size:54.0744px; letter-spacing:5;">The Boundary Badass</text>
<text transform="matrix(0.583 0 0 0.583 1135.7461 465.6982)" class="st0" style="font-family:'Montserrat-SemiBold'; font-size:54.0744px; letter-spacing:5.1;">™</text>
</svg>
