<?xml version="1.0" encoding="utf-8"?>
<!-- Generator: Adobe Illustrator 25.0.1, SVG Export Plug-In . SVG Version: 6.00 Build 0)  -->
<svg version="1.1" id="Layer_1" xmlns="http://www.w3.org/2000/svg" xmlns:xlink="http://www.w3.org/1999/xlink" x="0px" y="0px"
	 viewBox="0 0 1169.7 347.8" style="enable-background:new 0 0 1169.7 347.8;" xml:space="preserve">
<style type="text/css">
	.st0{fill:#FFFFFF;}
	.st1{fill:#FCD3A8;}
</style>
<path class="st0" d="M191.7,217.1c-0.6,0-1.2-0.3-1.6-0.8L120,128.1l-71.3,88.3c-0.7,0.9-2,1-2.8,0.3s-1-2-0.3-2.8l73-90.2
	c0.4-0.5,1-0.8,1.6-0.7c0.6,0,1.2,0.3,1.6,0.8l71.7,90.2c0.7,0.9,0.5,2.1-0.3,2.8c-0.4,0.3-0.8,0.4-1.2,0.4h-0.3V217.1z"/>
<path class="st0" d="M299.2,217.1c-0.6,0-1.2-0.3-1.6-0.8L227.5,128l-71.4,88.3c-0.7,0.9-2,1-2.8,0.3s-1-2-0.3-2.8l73-90.2
	c0.4-0.5,1-0.7,1.6-0.7l0,0c0.6,0,1.2,0.3,1.6,0.8l71.7,90.2c0.7,0.9,0.5,2.1-0.3,2.8l0,0C300.1,217,299.7,217.1,299.2,217.1z"/>
<path class="st0" d="M245.5,199.9c-0.6,0-1.2-0.3-1.6-0.8l-70.1-88.3l-71.4,88.3c-0.7,0.9-2,1-2.8,0.3c-0.9-0.7-1-2-0.3-2.8l0,0
	l73-90.2c0.4-0.5,1-0.7,1.6-0.7l0,0c0.6,0,1.2,0.3,1.6,0.8l71.6,90.2c0.7,0.9,0.5,2.1-0.3,2.8l0,0
	C246.4,199.7,245.9,199.9,245.5,199.9z"/>
<path class="st1" d="M173.2,347.8c-86.7,0-160-64.1-171.6-150c-0.3-2.5,1.4-4.9,4-5.2c2.5-0.3,4.9,1.4,5.2,4l0,0
	c10.8,80.9,80.7,141.9,162.4,141.9s151.6-61,162.4-141.9c0.2-2.6,2.5-4.4,5.1-4.2s4.4,2.5,4.2,5.1c0,0.1,0,0.3-0.1,0.4
	C333.2,283.7,259.8,347.8,173.2,347.8L173.2,347.8z"/>
<circle class="st0" cx="4.6" cy="173.9" r="4.6"/>
<circle class="st0" cx="341.7" cy="173.9" r="4.6"/>
<path class="st1" d="M339.7,155.2c-2.3,0-4.3-1.7-4.6-4c-10.8-81-80.6-142-162.4-142S21.1,70.3,10.3,151.2c-0.4,2.5-2.9,4.2-5.4,3.8
	c-2.4-0.4-4-2.6-3.8-5C13.9,55.2,101.1-11.2,195.9,1.6C273.2,12,333.9,72.8,344.3,150c0.3,2.5-1.4,4.9-4,5.2l0,0
	C340.1,155.2,339.9,155.2,339.7,155.2z"/>
<path class="st0" d="M460.8,133.6h-41.3l-8.9,19.8h-8.2l33.9-74.2h7.7l33.9,74.2h-8.2L460.8,133.6z M457.9,127.2l-17.8-39.9
	l-17.8,39.9H457.9z"/>
<path class="st0" d="M504.6,93.5h7.6V147h33.4v6.4h-41L504.6,93.5z"/>
<path class="st0" d="M616.6,147.1v6.4H573v-60h42.3v6.4h-34.7v20h31v6.3h-31V147L616.6,147.1z"/>
<path class="st0" d="M684.5,153.4l-18.8-25.2l-18.9,25.2h-8.6l23.3-30.9l-21.9-29h8.6l17.6,23.5l17.6-23.5h8.5l-21.8,29l23.2,30.9
	H684.5z"/>
<path class="st0" d="M755.4,138h-33.6l-7,15.5h-7.6l27.7-59.9h7.5l27.7,59.9h-7.6L755.4,138z M752.7,131.8l-14-31.1l-14.1,31.1
	H752.7z"/>
<path class="st0" d="M848.5,93.5v59.9h-6.4l-37.6-46.7v46.8h-7.6v-60h6.4l37.6,46.8V93.5H848.5z"/>
<path class="st0" d="M886.1,93.5h25.1c6-0.1,12,1.1,17.4,3.8c4.7,2.3,8.7,6,11.4,10.5c5.3,9.8,5.3,21.6,0,31.3
	c-2.7,4.6-6.6,8.3-11.4,10.6c-5.4,2.6-11.4,3.9-17.4,3.8H886L886.1,93.5L886.1,93.5L886.1,93.5z M911,147.1c8,0,14.2-2.1,18.7-6.4
	c4.5-4.3,6.7-10,6.7-17.2c0-7.1-2.2-12.8-6.7-17.1c-4.5-4.3-10.7-6.4-18.7-6.4h-17.2v47.2H911V147.1z"/>
<path class="st0" d="M1016.6,153.4l-13.6-18.9c-1.8,0.1-3.2,0.2-4.1,0.2h-15.7v18.7h-7.6V93.5h23.3c7.8,0,13.9,1.8,18.3,5.5
	s6.7,8.7,6.7,15.2c0.1,4.2-1.1,8.3-3.6,11.8c-2.5,3.4-6.1,5.9-10.1,7.1l14.6,20.4h-8.2L1016.6,153.4L1016.6,153.4z M1011.7,124.8
	c3.1-2.5,4.6-6,4.6-10.6s-1.5-8.1-4.6-10.6c-3-2.5-7.4-3.7-13.2-3.7h-15.3v28.6h15.3C1004.2,128.5,1008.6,127.3,1011.7,124.8z"/>
<path class="st0" d="M1057.1,93.5h7.6v59.9h-7.6V93.5z"/>
<path class="st0" d="M1139.7,138h-33.6l-7,15.5h-7.6l27.7-59.9h7.6l27.7,59.9h-7.7L1139.7,138z M1136.9,131.8l-14-31.1l-14.1,31.1
	H1136.9z"/>
<path class="st0" d="M428.6,192h-26.1v-6.8h60v6.8h-26.1v67.4h-7.8V192z"/>
<path class="st0" d="M488.6,199.5h7.6v26.3h36.4v-26.3h7.6v59.9h-7.6v-27.1h-36.4v27.1h-7.6L488.6,199.5z"/>
<path class="st0" d="M577.9,199.5h7.6v59.9h-7.6V199.5z"/>
<path class="st0" d="M671.6,233.6c2.2,2.8,3.3,6.2,3.1,9.7c0,5.2-2,9.1-5.9,11.9c-3.9,2.8-9.7,4.2-17.3,4.2h-28.4v-59.9h26.7
	c6.8,0,12.2,1.3,16,4c3.7,2.6,5.9,6.8,5.7,11.3c0.3,6-3.3,11.4-8.9,13.6C666.1,229.1,669.3,230.9,671.6,233.6z M630.8,205.5v20.7
	h18.5c4.7,0,8.4-0.9,10.9-2.6c2.5-1.7,4-4.7,3.8-7.7c0.2-3.1-1.3-6-3.8-7.7s-6.2-2.6-10.9-2.6L630.8,205.5L630.8,205.5z M667,242.8
	c0-3.7-1.3-6.4-4-8.1c-2.7-1.7-6.6-2.6-11.8-2.6h-20.4v21.4h20.5C661.8,253.5,667,249.9,667,242.8L667,242.8z"/>
<path class="st0" d="M715.8,256.1c-4.8-2.5-8.8-6.3-11.5-11c-8.6-14.3-4-33,10.3-41.6c0.4-0.2,0.8-0.5,1.2-0.7
	c10.3-5.4,22.5-5.4,32.8-0.1c4.8,2.5,8.7,6.3,11.5,11c5.6,9.7,5.6,21.6,0,31.3c-2.8,4.7-6.7,8.5-11.5,11
	C738.4,261.4,726.1,261.4,715.8,256.1L715.8,256.1z M744.7,250.4c3.7-2,6.7-5,8.8-8.6c4.2-7.6,4.2-16.9,0-24.6
	c-2.1-3.6-5.1-6.6-8.8-8.6c-7.8-4.2-17.2-4.2-25,0c-3.7,2-6.7,5-8.8,8.6c-4.2,7.6-4.2,16.9,0,24.6c2.1,3.6,5.1,6.6,8.8,8.6
	C727.5,254.5,736.9,254.5,744.7,250.4z"/>
<path class="st0" d="M795.9,199.5H821c6-0.1,12,1.2,17.4,3.8c4.7,2.3,8.7,6,11.4,10.5c5.3,9.8,5.3,21.6,0,31.3
	c-2.7,4.6-6.6,8.3-11.4,10.6c-5.4,2.6-11.4,3.9-17.4,3.8h-25.1V199.5z M820.7,253.1c8,0,14.2-2.1,18.7-6.4c4.5-4.3,6.7-10,6.7-17.2
	c0-7.1-2.2-12.8-6.7-17.1s-10.7-6.4-18.7-6.4h-17.1v47.2h17.1V253.1z"/>
<path class="st0" d="M929,253.1v6.4h-43.6v-59.9h42.3v6.4H893v20h31v6.2h-31V253L929,253.1z"/>
<path class="st0" d="M998.1,244h-33.6l-7,15.5h-7.6l27.7-59.9h7.5l27.7,59.9h-7.6L998.1,244z M995.3,237.8l-14-31.1l-14.1,31.1
	H995.3z"/>
<path class="st0" d="M1044,253.3c-4.5-4.5-6.7-11-6.7-19.3v-34.4h7.6v34.2c0,6.5,1.5,11.4,4.6,14.7s7.5,5,13.2,5
	c5.8,0,10.2-1.7,13.3-5c3.1-3.3,4.6-8.2,4.6-14.7v-34.2h7.4V234c0,8.3-2.2,14.8-6.7,19.3c-4.5,4.5-10.7,6.8-18.7,6.8
	C1054.7,260.1,1048.5,257.8,1044,253.3z"/>
<path class="st0" d="M1161,259.4l-18.9-25.2l-18.9,25.2h-8.6l23.3-30.8l-21.9-29h8.6l17.6,23.5l17.6-23.5h8.5l-21.8,29l23.2,30.8
	H1161z"/>
</svg>
