<svg id="point-b" data-name="Point B" xmlns="http://www.w3.org/2000/svg" viewBox="0 0 180 100">
    <defs>
        <style>
            .pt-b-cls-1 {
                fill: #4d9796;
            }
        </style>
    </defs>
    <path class="pt-b-cls-1"
        d="M140.5-.09A34.09,34.09,0,0,0,106.41,34c0,18.83,22.73,65.91,34.09,65.91S174.59,52.83,174.59,34A34.09,34.09,0,0,0,140.5-.09Zm0,59.09a25,25,0,1,1,25-25A25,25,0,0,1,140.5,59Z" />
    <path class="pt-b-cls-1"
        d="M137.55,26.64a7.2,7.2,0,0,1,4.39-1.36c5.68,0,9.5,4.17,9.5,10.4s-3.82,10.44-9.5,10.44a8.59,8.59,0,0,1-6.09-2.38l-.54,1.3c-.14.32-.32.54-.57.54h-4.07a.56.56,0,0,1-.54-.54V20a.55.55,0,0,1,.54-.5H137a.55.55,0,0,1,.54.5Zm0,11.34a3,3,0,0,0,2.84,2c2,0,3.31-1.73,3.31-4.32s-1.33-4.17-3.31-4.17a3,3,0,0,0-2.84,2Z" />
    <path class="pt-b-cls-1"
        d="M12.78,25.35A8.58,8.58,0,0,1,18.86,23c5.69,0,9.5,4.17,9.5,10.44s-3.81,10.4-9.5,10.4a7.14,7.14,0,0,1-4.39-1.37v7.06a.55.55,0,0,1-.54.5H7.59a.55.55,0,0,1-.54-.5V24.06a.55.55,0,0,1,.54-.54h4.07c.25,0,.43.22.58.54Zm1.69,10.3a3,3,0,0,0,2.84,2c2,0,3.31-1.66,3.31-4.18s-1.33-4.32-3.31-4.32a3,3,0,0,0-2.84,2Z" />
    <path class="pt-b-cls-1"
        d="M51,33.42c0,6.26-4.25,10.44-10.58,10.44S29.8,39.68,29.8,33.45,34.05,23,40.39,23,51,27.19,51,33.42Zm-14.15,0c0,2.34,1.44,3.93,3.57,3.93s3.56-1.59,3.56-4-1.44-3.93-3.56-3.93S36.82,31.08,36.82,33.45Z" />
    <path class="pt-b-cls-1"
        d="M60.69,19.31c0,2.12-1.58,3.56-4,3.56s-4-1.44-4-3.56a3.63,3.63,0,0,1,4-3.71A3.62,3.62,0,0,1,60.69,19.31Zm-.76,4.21a.55.55,0,0,1,.54.5V42.78a.56.56,0,0,1-.54.54H53.6a.56.56,0,0,1-.54-.54V24a.55.55,0,0,1,.54-.5Z" />
    <path class="pt-b-cls-1"
        d="M68.65,25c1.15-1.26,3.6-2,5.79-2C79.34,23,82,25.28,82,30.9V42.78a.56.56,0,0,1-.54.54H75.13a.51.51,0,0,1-.51-.54V32c0-1.44-.65-2.26-1.76-2.26a2.42,2.42,0,0,0-2.38,2v11a.56.56,0,0,1-.54.54H63.61a.56.56,0,0,1-.54-.54V24a.45.45,0,0,1,.5-.5h4a.6.6,0,0,1,.58.36Z" />
    <path class="pt-b-cls-1"
        d="M96.11,23.52a.5.5,0,0,1,.54.5l-.39,3.49a.58.58,0,0,1-.54.54H93.41V42.78a.56.56,0,0,1-.54.54H86.54a.56.56,0,0,1-.54-.54V28.05H84a.52.52,0,0,1-.51-.5V24.06a.53.53,0,0,1,.51-.54h2V19.6a.58.58,0,0,1,.54-.51l6.33-.61a.52.52,0,0,1,.54.5v4.54Z" />
</svg>